<?xml version="1.0" encoding="iso-8859-1"?>
<!-- Generator: Adobe Illustrator 20.1.0, SVG Export Plug-In . SVG Version: 6.00 Build 0)  -->
<svg version="1.1" id="Layer_1" xmlns="http://www.w3.org/2000/svg" xmlns:xlink="http://www.w3.org/1999/xlink" x="0px" y="0px"
	 viewBox="0 0 396.926 396.922" style="enable-background:new 0 0 396.926 396.922;" xml:space="preserve">
<g>
	<path style="fill:#BCBCBC;" d="M0,198.465C0,88.848,88.855,0,198.461,0C308.07,0,396.926,88.848,396.926,198.465
		c0,109.602-88.856,198.457-198.465,198.457C88.855,396.922,0,308.067,0,198.465L0,198.465z M0,198.465"/>
	<path style="fill:#FFFFFF;" d="M270.273,89.067c0-12.223-143.898-12.223-143.898,0v17.043c0,41.254,32.211,74.691,71.945,74.691
		c39.739,0,71.953-33.437,71.953-74.691V89.067z M270.273,89.067"/>
	<path style="fill:#FFFFFF;" d="M214.609,261.743c0,8.8-31.867,8.8-31.867,0l-10.152-87.821c0-8.804,52.18-8.804,52.18,0
		L214.609,261.743z M214.609,261.743"/>
	<path style="fill:#FFFFFF;" d="M253.32,267.329c-4.824-9.458-27.336-11.997-54.699-12.016v-0.004h-0.316v0.004
		c-27.364,0.019-49.875,2.558-54.696,12.016c-4.843,9.492-3.062,49.226-3.062,49.695h115.832
		C256.379,316.555,258.16,276.821,253.32,267.329L253.32,267.329z M253.32,267.329"/>
	<path style="fill:#FFFFFF;" d="M259.312,177c-13.445,0-24.285-10.011-24.792-10.488c-1.973-1.851-2.071-4.949-0.223-6.918
		c1.851-1.973,4.949-2.07,6.922-0.223c0.093,0.09,10.582,9.676,21.312,7.524c6.887-1.383,12.813-7.438,17.61-17.992
		c5.019-11.035,5.765-19.778,2.226-25.985c-4.965-8.711-17.312-10.281-17.433-10.293c-2.688-0.289-4.629-2.707-4.34-5.394
		c0.293-2.688,2.711-4.633,5.394-4.34c0.707,0.078,17.391,2.027,24.887,15.18c5.18,9.09,4.566,20.828-1.82,34.883
		c-6.192,13.617-14.489,21.542-24.668,23.554C262.668,176.848,260.969,177,259.312,177L259.312,177z M259.312,177"/>
	<path style="fill:#FFFFFF;" d="M137.613,177c13.449,0,24.285-10.011,24.793-10.488c1.973-1.851,2.071-4.949,0.223-6.918
		c-1.852-1.973-4.953-2.07-6.922-0.223c-0.094,0.09-10.582,9.676-21.312,7.524c-6.887-1.383-12.809-7.438-17.61-17.992
		c-5.015-11.035-5.765-19.778-2.226-25.985c4.964-8.711,17.312-10.281,17.433-10.293c2.688-0.289,4.633-2.707,4.34-5.394
		c-0.293-2.688-2.711-4.633-5.394-4.34c-0.708,0.078-17.391,2.027-24.883,15.18c-5.184,9.09-4.571,20.828,1.816,34.883
		c6.191,13.617,14.488,21.542,24.668,23.554C134.262,176.848,135.957,177,137.613,177L137.613,177z M137.613,177"/>
</g>
</svg>
