<svg xmlns="http://www.w3.org/2000/svg" xmlns:xlink="http://www.w3.org/1999/xlink" preserveAspectRatio="xMidYMid" width="17" height="30" viewBox="0 0 17 30">
  <defs>
    <style>
      .cls-1 {
        fill: #b3bcc5;
        fill-rule: evenodd;
      }
    </style>
  </defs>
  <path d="M16.043,15.646 C16.013,15.676 15.966,15.666 15.930,15.685 C15.899,15.756 15.855,15.824 15.796,15.883 L1.901,29.807 C1.675,30.033 1.336,30.060 1.143,29.867 C1.088,29.812 1.056,29.744 1.036,29.672 L0.901,29.807 C0.675,30.033 0.336,30.060 0.143,29.867 C-0.050,29.673 -0.023,29.333 0.202,29.107 L13.985,15.296 L0.207,1.517 C-0.022,1.289 -0.049,0.945 0.146,0.750 C0.342,0.555 0.685,0.582 0.914,0.810 L1.039,0.936 C1.060,0.867 1.094,0.803 1.146,0.750 C1.342,0.555 1.685,0.582 1.914,0.810 L15.983,14.879 C16.211,15.108 16.238,15.451 16.043,15.646 Z" class="cls-1"/>
</svg>
