<?xml version="1.0" encoding="iso-8859-1"?>
<!-- Generator: Adobe Illustrator 20.1.0, SVG Export Plug-In . SVG Version: 6.00 Build 0)  -->
<svg version="1.1" id="Layer_1" xmlns="http://www.w3.org/2000/svg" xmlns:xlink="http://www.w3.org/1999/xlink" x="0px" y="0px"
	 viewBox="0 0 35.199 35.199" style="enable-background:new 0 0 35.199 35.199;" xml:space="preserve">
<g>
	<path style="fill:#F0C419;" d="M17.602,35.199C7.895,35.199,0,27.305,0,17.602C0,7.895,7.895,0,17.602,0
		c9.703,0,17.597,7.895,17.597,17.602C35.199,27.305,27.305,35.199,17.602,35.199L17.602,35.199z M17.602,35.199"/>
	<path style="fill:#FBD490;" d="M18.195,25.602h-1.191c-0.996,0-1.805-0.809-1.805-1.805V10.605c0-1,0.809-1.804,1.805-1.804h1.191
		c0.996,0,1.805,0.804,1.805,1.804v13.192C20,24.793,19.191,25.602,18.195,25.602L18.195,25.602z M18.195,25.602"/>
	<path style="fill:#F0C419;" d="M17.602,35.199C7.895,35.199,0,27.305,0,17.602C0,7.895,7.895,0,17.602,0
		c9.703,0,17.597,7.895,17.597,17.602C35.199,27.305,27.305,35.199,17.602,35.199L17.602,35.199z M17.602,35.199"/>
	<path style="fill:#FBD490;" d="M18.195,25.602h-1.191c-0.996,0-1.805-0.809-1.805-1.805V10.605c0-1,0.809-1.804,1.805-1.804h1.191
		c0.996,0,1.805,0.804,1.805,1.804v13.192C20,24.793,19.191,25.602,18.195,25.602L18.195,25.602z M18.195,25.602"/>
</g>
</svg>
