<?xml version="1.0" encoding="utf-8"?>
<!-- Generator: Adobe Illustrator 19.2.0, SVG Export Plug-In . SVG Version: 6.00 Build 0)  -->
<svg version="1.1" id="Layer_1" xmlns="http://www.w3.org/2000/svg" xmlns:xlink="http://www.w3.org/1999/xlink" x="0px" y="0px"
	 viewBox="0 0 13 12" style="enable-background:new 0 0 13 12;" xml:space="preserve">
<style type="text/css">
	.st0{clip-path:url(#SVGID_2_);}
</style>
<g>
	<g>
		<defs>
			<rect id="SVGID_1_" x="0" width="13" height="12"/>
		</defs>
		<clipPath id="SVGID_2_">
			<use xlink:href="#SVGID_1_"  style="overflow:visible;"/>
		</clipPath>
		<path class="st0" d="M12.6,10.8L7.1,0.4C6.9,0.2,6.7,0,6.4,0C6.1,0,5.8,0.2,5.7,0.4L0.1,10.8c-0.1,0.2-0.1,0.5,0,0.8
			C0.3,11.9,0.5,12,0.8,12h11.1c0.3,0,0.5-0.1,0.7-0.4C12.8,11.4,12.8,11.1,12.6,10.8L12.6,10.8z M6.4,10.4c-0.4,0-0.8-0.4-0.8-0.8
			c0-0.4,0.4-0.8,0.8-0.8c0.4,0,0.8,0.4,0.8,0.8C7.2,10,6.8,10.4,6.4,10.4L6.4,10.4z M7.2,7.2C7.2,7.7,6.8,8,6.4,8
			C5.9,8,5.6,7.7,5.6,7.2V4c0-0.4,0.4-0.8,0.8-0.8c0.4,0,0.8,0.4,0.8,0.8V7.2z M7.2,7.2"/>
	</g>
</g>
</svg>
