<?xml version="1.0" encoding="iso-8859-1"?>
<!-- Generator: Adobe Illustrator 20.1.0, SVG Export Plug-In . SVG Version: 6.00 Build 0)  -->
<svg version="1.1" id="Layer_1" xmlns="http://www.w3.org/2000/svg" xmlns:xlink="http://www.w3.org/1999/xlink" x="0px" y="0px"
	 viewBox="0 0 231.14 230.399" style="enable-background:new 0 0 231.14 230.399;" xml:space="preserve">
<g>
	<g>
		<g>
			<path style="fill:#734A3E;" d="M12.801,140.801c0,0-12.801-52.379-12.801-70.402C0,31.735,32,32,32,32l0.004-0.004
				C50.801,0,140.801,0,140.801,0L128,12.801C163.199,1.602,230.398,0,230.398,0L224,25.602c19.199,32-6.402,115.199-6.402,115.199
				H12.801z M12.801,140.801"/>
		</g>
		<path style="fill:#623F33;" d="M140.801,0c0,0-90,0-108.797,31.996L32,32c0,0-32-0.265-32,38.399
			c0,18.023,12.801,70.402,12.801,70.402S145.867,81.332,230.398,0c0,0-67.199,1.602-102.398,12.801L140.801,0z M140.801,0"/>
		<path style="fill:#FFE1B2;" d="M204.801,128v-12.801c0-17.671-14.328-32-32-32H57.598c-17.672,0-32,14.329-32,32V128
			c-10.602,0-19.2,8.598-19.2,19.199c0,10.606,8.598,19.2,19.2,19.2v6.402c0,15.5,9.32,29.48,23.632,35.445l41.352,17.231
			c7.801,3.25,16.168,4.922,24.617,4.922c8.449,0,16.813-1.672,24.613-4.922l41.356-17.231
			c14.308-5.961,23.633-19.945,23.633-35.445v-6.402c10.601,0,19.199-8.594,19.199-19.2C224,136.598,215.402,128,204.801,128
			L204.801,128z M204.801,128"/>
		<path style="fill:#623F33;" d="M70.398,153.602c-3.519,0-6.398-2.883-6.398-6.403v-6.398c0-3.52,2.879-6.402,6.398-6.402
			c3.52,0,6.403,2.882,6.403,6.402v6.398C76.801,150.719,73.918,153.602,70.398,153.602L70.398,153.602z M70.398,153.602"/>
		<path style="fill:#623F33;" d="M160,153.602c-3.52,0-6.402-2.883-6.402-6.403v-6.398c0-3.52,2.882-6.402,6.402-6.402
			c3.519,0,6.398,2.882,6.398,6.402v6.398C166.398,150.719,163.519,153.602,160,153.602L160,153.602z M160,153.602"/>
		<path style="fill:#FFD7A3;" d="M59.195,194.977c-5.183-5.559-7.996-12.895-7.996-20.5v-72.528
			c20.371-1.527,84.594-7.082,121.602-18.75H57.598c-2.204,0-4.336,0.258-6.399,0.707v-0.062
			c-14.605,2.965-25.601,15.875-25.601,31.355V128c-10.602,0-19.2,8.598-19.2,19.199c0,10.606,8.598,19.2,19.2,19.2v6.402
			c0,15.5,9.32,29.484,23.632,35.445l41.352,17.231c2.023,0.844,4.09,1.57,6.18,2.199C78.488,214.305,66.324,202.621,59.195,194.977
			L59.195,194.977z M59.195,194.977"/>
	</g>
	<path style="fill:#E4B07B;" d="M138.746,194.826h-47.5c-2.956,0-5.375-2.419-5.375-5.375v0c0-2.956,2.419-5.375,5.375-5.375h47.5
		c2.956,0,5.375,2.419,5.375,5.375v0C144.121,192.407,141.702,194.826,138.746,194.826z"/>
</g>
</svg>
