<?xml version="1.0" encoding="utf-8"?>
<!-- Generator: Adobe Illustrator 19.2.0, SVG Export Plug-In . SVG Version: 6.00 Build 0)  -->
<svg version="1.1" id="Layer_1" xmlns="http://www.w3.org/2000/svg" xmlns:xlink="http://www.w3.org/1999/xlink" x="0px" y="0px"
	 viewBox="0 0 320.9 199" style="enable-background:new 0 0 320.9 199;" xml:space="preserve">
<style type="text/css">
	.st0{clip-path:url(#SVGID_2_);}
</style>
<g>
	<g>
		<defs>
			<rect id="SVGID_1_" width="320.9" height="199"/>
		</defs>
		<clipPath id="SVGID_2_">
			<use xlink:href="#SVGID_1_"  style="overflow:visible;"/>
		</clipPath>
		<path class="st0" d="M306.2,85.4H47.3l61.8-61.8c5.4-5.4,5.4-14.2,0-19.6c-5.4-5.4-14.2-5.4-19.6,0L4.1,89.5
			c-5.4,5.4-5.4,14.2,0,19.6l85.4,85.4c2.7,2.7,6.3,4.1,9.8,4.1c3.5,0,7.1-1.4,9.8-4.1c5.4-5.4,5.4-14.2,0-19.6l-61.8-61.8h258.9
			c7.6,0,13.9-6.2,13.9-13.9C320,91.6,313.8,85.4,306.2,85.4L306.2,85.4z M306.2,85.4"/>
	</g>
</g>
</svg>
