<?xml version="1.0" encoding="iso-8859-1"?>
<!-- Generator: Adobe Illustrator 20.1.0, SVG Export Plug-In . SVG Version: 6.00 Build 0)  -->
<svg version="1.1" id="Isolation_Mode" xmlns="http://www.w3.org/2000/svg" xmlns:xlink="http://www.w3.org/1999/xlink" x="0px"
	 y="0px" viewBox="0 0 46.398 42.398" style="enable-background:new 0 0 46.398 42.398;" xml:space="preserve">
<g>
	<path style="fill:#9ECC2E;" d="M42.852,34.227l-7.641-3.821c-0.988-0.496-1.609-1.504-1.609-2.609v-2.996
		c0.21-0.246,0.46-0.559,0.722-0.93c1.039-1.473,1.828-3.09,2.375-4.789c0.981-0.301,1.699-1.207,1.699-2.281v-3.199
		c0-0.707-0.312-1.336-0.796-1.774V7.199c0,0,0.949-7.199-8.801-7.199S20,7.199,20,7.199v4.629
		c-0.488,0.438-0.801,1.067-0.801,1.774v3.199c0,0.844,0.446,1.586,1.106,2.011c0.8,3.485,2.894,5.989,2.894,5.989v2.922
		c0,1.066-0.582,2.05-1.519,2.558l-7.137,3.895c-2.063,1.125-3.344,3.285-3.344,5.633v2.589h35.199v-2.433
		C46.398,37.535,45.027,35.312,42.852,34.227L42.852,34.227z M42.852,34.227"/>
	<path style="fill:#DEE1E2;" d="M14.543,34.176l4.758-2.594c-0.028-0.027-0.004-0.035,0.051-0.027l2.328-1.274
		c0.937-0.508,1.519-1.488,1.519-2.558v-2.922c0,0-0.847-1.02-1.672-2.66c-0.109-0.215-0.215-0.442-0.32-0.676
		c-0.016-0.035-0.031-0.067-0.043-0.098c-0.105-0.242-0.211-0.492-0.309-0.754c-0.007-0.019-0.011-0.035-0.019-0.054
		c-0.086-0.231-0.168-0.469-0.246-0.715c-0.02-0.067-0.039-0.133-0.059-0.203c-0.082-0.27-0.16-0.543-0.222-0.829
		c-0.664-0.425-1.11-1.167-1.11-2.011v-3.199c0-0.707,0.313-1.336,0.801-1.774V7.309c-1.129-0.879-2.883-1.707-5.602-1.707
		c-7.648,0-8,6.398-8,6.398v3.996c-0.418,0.379-0.796,0.922-0.796,1.531v2.766c0,0.727,0.382,1.367,0.953,1.738
		c0.691,3.004,3.007,5.168,3.007,5.168v2.528c0,0.921-0.503,1.769-1.312,2.21l-5.363,3.36C1.109,36.27,0,38.133,0,40.164v2.234
		h11.199v-2.589C11.199,37.461,12.48,35.301,14.543,34.176L14.543,34.176z M14.543,34.176"/>
</g>
</svg>
