<?xml version="1.0" standalone="no"?>
<!DOCTYPE svg PUBLIC "-//W3C//DTD SVG 1.1//EN" "http://www.w3.org/Graphics/SVG/1.1/DTD/svg11.dtd" >
<svg xmlns="http://www.w3.org/2000/svg">
<metadata>Generated by IcoMoon</metadata>
<defs>
<font id="fond_icons" horiz-adv-x="1024">
<font-face units-per-em="1024" ascent="960" descent="-64" />
<missing-glyph horiz-adv-x="1024" />
<glyph unicode="&#x20;" horiz-adv-x="512" d="" />
<glyph unicode="&#xe900;" glyph-name="chevron_left" horiz-adv-x="1007" d="M264.48 432.908c-7.030 15.13-4.283 33.674 8.223 46.128l403.267 403.267c10.333 10.289 25.369 14.284 39.446 10.479s25.055-14.828 28.8-28.921c3.744-14.093-0.315-29.112-10.647-39.4l-375.772-375.772 375.772-375.772c11.241-10.077 15.987-25.546 12.33-40.194s-15.113-26.072-29.77-29.686c-14.657-3.614-30.113 1.175-40.158 12.444l-403.267 403.267c-3.783 4.244-6.522 9.072-8.223 14.159z" />
<glyph unicode="&#xe901;" glyph-name="chevron_right" horiz-adv-x="1007" d="M648.499 446.815l-375.728 375.728c-15.884 16.007-15.884 41.828 0 57.837 15.886 15.792 41.543 15.792 57.429 0l397.571-397.571c9.284-5.531 16.152-14.635 18.757-25.469 3.578-14.879-1.484-30.508-13.107-40.461l-403.221-403.221c-16.159-13.839-40.248-12.908-55.292 2.136s-15.974 39.133-2.136 55.292l375.728 375.728z" />
<glyph unicode="&#xe902;" glyph-name="book" d="M573.348 471.087c2.641-5.161 7.904-8.151 13.338-8.151 2.266 0 4.599 0.521 6.761 1.633 0.881 0.443 88.792 45.096 132.148 58.797 7.86 2.494 12.221 10.886 9.724 18.741-2.478 7.863-10.81 12.239-18.743 9.75-45.666-14.443-132.983-58.797-136.682-60.675-7.349-3.735-10.279-12.726-6.546-20.092v0zM586.687 642.149c2.266 0 4.599 0.531 6.761 1.633 0.881 0.443 88.792 45.105 132.148 58.797 7.86 2.494 12.221 10.886 9.724 18.749-2.478 7.855-10.81 12.229-18.743 9.75-45.666-14.443-132.983-58.805-136.682-60.684-7.349-3.735-10.279-12.726-6.546-20.084 2.641-5.169 7.904-8.163 13.338-8.163v0zM945.11 672.027c-8.254 0-14.938-6.692-14.938-14.938v-582.465c0-24.706-20.099-44.805-44.797-44.805h-358.441v34.363c21.774 7.614 78.494 25.373 134.409 25.373 130.103 0 218.443-28.808 219.322-29.108 4.495-1.488 9.512-0.744 13.444 2.067 3.896 2.802 6.196 7.316 6.196 12.109v657.137c0 7.010-4.855 13.068-11.692 14.58 0 0-11.707 2.616-31.722 6.289-8.083 1.496-15.894-3.888-17.39-11.98-1.488-8.127 3.873-15.905 11.982-17.399 7.631-1.402 14.023-2.641 18.954-3.623v-625.159c-33.842 8.878-108.996 24.963-209.095 24.963-65.068 0-128.993-21.375-148.768-28.621-17.579 7.769-70.717 28.621-135 28.621-102.874 0-187.616-16.973-224.022-25.588v626.365c29.826 7.334 117.907 26.494 224.022 26.494 54.455 0 101.16-16.955 119.481-24.613v-587.729c0-5.374 2.896-10.349 7.572-12.988 4.674-2.657 10.442-2.59 15.057 0.194 1.479 0.881 149.452 89.263 280.794 133.035 6.11 2.050 10.212 7.743 10.212 14.176v612.341c0 4.897-2.403 9.478-6.434 12.27-4.001 2.796-9.144 3.437-13.758 1.717-119.491-44.823-240.406-120.059-241.62-120.811-6.989-4.376-9.118-13.587-4.744-20.579 4.358-6.992 13.571-9.128 20.579-4.752 1.102 0.708 106.294 66.154 216.11 110.311v-579.807c-101.954-35.421-208.392-93.271-253.9-119.165v571.457c0 5.667-3.196 10.829-8.254 13.367-2.572 1.273-63.78 31.441-141.095 31.441-134.956 0-238.703-29.202-243.071-30.449-6.401-1.82-10.826-7.692-10.826-14.358v-657.137c0-4.674 2.211-9.102 5.931-11.92 2.631-1.991 5.794-3.017 9.006-3.017 1.376 0 2.753 0.197 4.093 0.582 1.026 0.282 104.303 29.287 234.866 29.287 54.6 0 101.262-16.999 119.481-24.63v-35.107h-358.441c-24.706 0-44.808 20.099-44.808 44.805v582.465c0 8.246-6.691 14.938-14.93 14.938-8.246 0-14.938-6.692-14.938-14.938v-582.465c0-41.181 33.5-74.681 74.675-74.681h746.759c41.173 0 74.675 33.5 74.675 74.681v582.465c0 8.246-6.683 14.938-14.94 14.938v0zM573.348 560.698c2.641-5.169 7.904-8.153 13.338-8.153 2.266 0 4.599 0.523 6.761 1.625 0.881 0.453 88.792 45.105 132.148 58.805 7.86 2.494 12.221 10.886 9.724 18.741-2.478 7.855-10.81 12.229-18.743 9.75-45.666-14.443-132.983-58.797-136.682-60.675-7.349-3.735-10.279-12.734-6.546-20.092v0zM573.348 381.482c2.641-5.169 7.904-8.161 13.338-8.161 2.266 0 4.599 0.529 6.761 1.633 0.881 0.443 88.792 45.105 132.148 58.797 7.86 2.494 12.221 10.886 9.724 18.741-2.478 7.863-10.81 12.239-18.743 9.76-45.666-14.443-132.983-58.805-136.682-60.684-7.349-3.735-10.279-12.726-6.546-20.084v0zM425.792 618.888c-92.227 21.637-197.024-5.931-201.435-7.111-7.954-2.137-12.69-10.323-10.554-18.298 1.794-6.673 7.819-11.065 14.409-11.065 1.291 0 2.59 0.161 3.888 0.503 1 0.29 101.902 26.827 186.882 6.888 7.992-1.864 16.067 3.111 17.955 11.142 1.882 8.018-3.111 16.050-11.145 17.94v0zM425.792 529.276c-92.227 21.621-197.024-5.931-201.435-7.111-7.954-2.137-12.69-10.323-10.554-18.298 1.794-6.673 7.819-11.065 14.409-11.065 1.291 0 2.59 0.161 3.888 0.512 1 0.282 101.902 26.817 186.882 6.88 7.992-1.864 16.067 3.111 17.955 11.145 1.882 8.016-3.111 16.055-11.145 17.937v0zM573.348 291.87c2.641-5.169 7.904-8.151 13.338-8.151 2.266 0 4.599 0.521 6.761 1.623 0.881 0.443 88.792 45.105 132.148 58.805 7.86 2.486 12.221 10.886 9.724 18.741-2.478 7.855-10.81 12.229-18.743 9.75-45.666-14.442-132.983-58.805-136.682-60.684-7.349-3.735-10.279-12.726-6.546-20.084v0zM425.792 439.664c-92.227 21.631-197.024-5.913-201.435-7.111-7.954-2.137-12.69-10.315-10.554-18.296 1.794-6.675 7.819-11.077 14.409-11.077 1.291 0 2.59 0.179 3.888 0.521 1 0.282 101.902 26.827 186.882 6.888 7.992-1.872 16.067 3.103 17.955 11.135 1.882 8.024-3.111 16.055-11.145 17.937v0zM425.792 260.447c-92.227 21.637-197.024-5.931-201.435-7.111-7.954-2.137-12.69-10.323-10.554-18.296 1.794-6.675 7.819-11.085 14.409-11.085 1.291 0 2.59 0.179 3.888 0.521 1 0.29 101.902 26.827 186.882 6.888 7.992-1.856 16.067 3.111 17.955 11.145 1.882 8.016-3.111 16.050-11.145 17.937v0zM425.792 350.051c-92.227 21.645-197.024-5.913-201.435-7.111-7.954-2.128-12.69-10.315-10.554-18.29 1.794-6.673 7.819-11.083 14.409-11.083 1.291 0 2.59 0.179 3.888 0.521 1 0.282 101.902 26.827 186.882 6.888 7.992-1.872 16.067 3.103 17.955 11.145 1.882 8.016-3.111 16.047-11.145 17.929v0z" />
<glyph unicode="&#xe903;" glyph-name="eye" horiz-adv-x="1014" d="M506.997 704.014c-164.114 0-312.944-89.788-422.766-235.633-8.957-11.943-8.957-28.64 0-40.592 109.821-146.009 258.652-235.804 422.766-235.804 164.123 0 312.947 89.796 422.767 235.633 8.965 11.952 8.965 28.64 0 40.592-109.821 146.018-258.645 235.804-422.767 235.804v0zM518.769 267.717c-108.934-6.853-198.903 82.94-192.047 192.059 5.621 89.967 78.54 162.886 168.506 168.506 108.944 6.853 198.903-82.932 192.056-192.059-5.801-89.788-78.719-162.706-168.516-168.506v0zM513.332 351.011c-58.695-3.687-107.187 44.633-103.326 103.317 2.986 48.492 42.349 87.677 90.841 90.844 58.695 3.687 107.187-44.633 103.326-103.317-3.165-48.674-42.521-87.856-90.841-90.844v0z" />
<glyph unicode="&#xe904;" glyph-name="play" d="M744.381 460.32l-328.477 224c-4.611 3.136-10.509 3.435-15.4 0.877-4.872-2.557-7.933-7.653-7.933-13.197v-448c0-5.544 3.061-10.64 7.933-13.197 2.203-1.176 4.592-1.755 6.925-1.755 3.005 0 5.917 0.877 8.475 2.632l328.477 224c4.088 2.763 6.571 7.355 6.571 12.32s-2.483 9.557-6.571 12.32v0zM422.381 252.299v391.403l287.075-195.701-287.075-195.701zM512 896c-247.035 0-448-200.965-448-448s200.965-448 448-448c247.035 0 448 200.965 448 448s-200.965 448-448 448v0zM512 29.904c-230.571 0-418.096 187.525-418.096 418.096s187.525 418.096 418.096 418.096c230.571 0 418.096-187.525 418.096-418.096s-187.525-418.096-418.096-418.096v0z" />
<glyph unicode="&#xe905;" glyph-name="quote" d="M512 896c-247.031 0-448-200.969-448-448 0-247.035 200.969-448 448-448 247.035 0 448.004 200.965 448.004 448 0 247.031-200.969 448-448.004 448v0zM292.618 227.785c-5.035-3.41-17.694-6.415-25.097 1.805l-13.662 17.189c-6.614 11.168 1.393 21.531 6.57 25.83 24.633 20.431 42.539 36.223 53.722 47.405 21.91 23.054 38.111 46.121 48.812 69.117 2.441 5.259-3.804 8.603-7.049 9.659-80.75 26.467-121.146 73.138-121.146 139.984 0 39.385 13.084 71.392 39.225 95.994 26.156 24.606 58.923 36.915 98.304 36.915 35.067 0 66.143-15.991 93.215-47.998 26.467-30.148 39.692-62.76 39.692-97.842 0-102.787-70.849-202.139-212.584-298.060v0zM599.984 227.785c-5.047-3.41-17.694-6.415-25.097 1.805l-13.662 17.189c-6.614 11.168 1.396 21.531 6.57 25.83 24.635 20.431 42.539 36.223 53.722 47.405 21.91 23.054 38.115 46.121 48.802 69.117 2.451 5.259-3.794 8.603-7.038 9.659-80.75 26.467-121.146 73.138-121.146 139.984 0 39.385 13.084 71.392 39.225 95.994 26.156 24.606 58.923 36.915 98.304 36.915 35.067 0 66.146-15.991 93.219-47.998 26.467-30.148 39.692-62.76 39.692-97.842 0-102.787-70.853-202.139-212.588-298.060v0z" />
<glyph unicode="&#xe906;" glyph-name="pin" horiz-adv-x="1012" d="M732.68 796.994c-125.172 125.127-328.144 125.127-453.352 0-112.799-112.799-125.468-325.225-29.71-452.842l256.42-370.252 256.42 370.252c95.673 127.602 82.988 340.048-29.784 452.842v0zM509.168 467.622c-58.483 0-105.838 47.37-105.838 105.838 0 58.394 47.354 105.838 105.838 105.838 58.467 0 105.805-47.444 105.805-105.838 0-58.467-47.354-105.838-105.805-105.838v0z" />
<glyph unicode="&#xe907;" glyph-name="edit" horiz-adv-x="1028" d="M623.487 745.841l183.172-183.172-463.659-463.659-183.066 183.172 463.554 463.659zM945.655 790.021l-81.69 81.686c-31.569 31.569-82.83 31.569-114.505 0l-78.252-78.252 183.171-183.168 91.277 91.272c24.482 24.485 24.482 63.976 0 88.461v0zM64.075 24.721c-3.333-15.003 10.21-28.445 25.214-24.796l204.118 49.492-183.071 183.171-46.261-207.867z" />
<glyph unicode="&#xe908;" glyph-name="hands" d="M897.665 295.022c-20.35 12.71-46.3 14.014-67.866 3.484l-152.894-74.208v8.064c0 38.762-29.692 69.306-68.454 69.306h-148.084c-30.214 0-61.108 5.028-89.97 13.958l-96.467 30.065v38.898c0 12.434-8.204 22.888-20.638 22.888h-135.076c-12.434 0-24.388-10.454-24.388-22.888v-357.95c0-12.434 11.956-22.136 24.388-22.136h135.076c12.434 0 20.638 9.706 20.638 22.136v36.040l16.106-11.996c40.802-32.812 93.042-50.68 145.402-50.68h130.116c46.558 0 91.494 13.672 129.946 39.918l204.516 139.488c18.884 12.888 30.156 34.181 30.156 57.040 0 24-12.152 45.866-32.506 58.578zM228.904 49.528h-90.050v312.924h90.050v-312.924zM874.632 216.494l-204.514-139.39c-30.942-21.119-67.1-32.081-104.564-32.081h-130.116c-42.13 0-84.352 14.342-117.182 40.746l-44.326 34.69v178.1l83.154-25.944c33.178-10.27 68.55-15.972 103.284-15.972h148.084c13.936 0 23.429-10.344 23.429-24.28v-27.216c-27.014-7.38-90.244-20.45-154.224-10.156-12.268 1.97-23.368-6.374-25.342-18.65s6.604-23.828 18.88-25.804c19.576-3.15 39.025-4.412 57.462-4.412 72.432 0 130.932 19.506 134.724 20.798 0.006 0.002 0.040 0.006 0.046 0.006 0.021 0.007 0.078 0.022 0.096 0.026 0.833 0.286 1.64 0.626 2.415 0.998 0.056 0.026 0.119 0.042 0.174 0.070l184.364 90.026c7.63 3.726 16.136 3.283 23.338-1.216s11.333-11.948 11.333-20.44c0-7.968-3.93-15.406-10.514-19.9zM907.658 891.498h-135.076c-12.434 0-23.639-10.484-23.639-22.918v-36.040l-14.604 12.386c-40.8 32.814-91.54 51.074-143.9 51.074h-130.116c-46.556 0-91.492-14.060-129.95-40.31l-204.514-139.684c-18.88-12.888-30.152-34.276-30.152-57.138 0-23.998 12.152-45.938 32.506-58.65 20.356-12.71 44.8-14.024 66.366-3.496l151.394 74.196v-8.064c0-38.762 32.694-70.777 71.458-70.777h148.084c30.216 0 59.606-4.291 88.468-13.223l94.968-29.33v-38.898c0-12.434 11.206-22.108 23.639-22.108h135.076c12.434 0 21.386 9.674 21.386 22.108v357.95c-0.004 12.434-8.958 22.918-21.392 22.918zM667.292 621.866c-33.176 10.27-67.050 15.239-101.782 15.239h-148.084c-13.936 0-26.432 11.816-26.432 25.753v27.218c29.267 7.38 91.738 20.45 155.726 10.154 12.264-1.972 24.118 6.376 26.094 18.65 1.974 12.276-6.23 23.828-18.504 25.804-96.376 15.514-186.994-14.698-191.938-16.382-0.008-0.002 0.021-0.006 0.010-0.008-0.022-0.008-0.040-0.021-0.058-0.026-0.466-0.16-0.875-0.343-1.27-0.532-0.434-0.18-0.872-0.329-1.296-0.536l-184.362-90.026c-7.632-3.724-16.134-3.283-23.334 1.216s-11.332 11.948-11.332 20.436c0 7.97 3.93 15.41 10.51 19.902l204.516 139.778c30.944 21.119 67.104 32.47 104.564 32.47h130.116c42.13 0 82.854-14.73 115.684-41.136l42.82-35.080v-178.1l-81.648 25.206zM884.020 533.547h-90.050v312.924h90.050v-312.924zM508.942 345.24c3.908-2.784 8.486-4.176 13.060-4.176s9.15 1.392 13.060 4.176c0.904 0.646 22.434 16.038 44.228 36.7 32.852 31.146 48.824 57.516 48.824 80.614 0 38.94-31.68 70.622-70.622 70.622-12.558 0-24.804-3.38-35.488-9.586-10.688 6.208-22.934 9.586-35.492 9.586-38.94 0-70.62-31.68-70.62-70.622 0-23.096 15.97-49.464 48.824-80.614 21.792-20.662 43.322-36.054 44.226-36.7zM486.513 488.146c7.264 0 13.972-2.956 18.886-8.324 4.264-4.658 10.288-7.31 16.606-7.31 6.314 0 12.34 2.654 16.602 7.312 4.914 5.368 11.622 8.323 18.884 8.323 14.114 0 25.598-11.484 25.598-25.598 0-14.328-30.052-46.294-61.094-70.82-31.038 24.492-61.075 56.442-61.075 70.82 0 14.116 11.482 25.598 25.594 25.598z" />
<glyph unicode="&#xe909;" glyph-name="ward" horiz-adv-x="1041" d="M227.138 389.375c6.508 0 12.623-2.538 17.229-7.132 2.601-2.601 6.008-3.913 9.425-3.902 3.409 0 6.815 1.301 9.417 3.902 5.205 5.196 5.205 13.641 0 18.843-9.629 9.629-22.44 14.934-36.063 14.934s-26.433-5.305-36.070-14.934c-5.205-5.205-5.205-13.641 0-18.843s13.641-5.205 18.843 0c4.594 4.594 10.717 7.132 17.218 7.132v0zM467.018 401.087c-5.205-5.205-5.205-13.641 0-18.843s13.641-5.205 18.843 0c9.491 9.491 24.953 9.491 34.443 0 2.601-2.601 6.011-3.902 9.425-3.902 3.409 0 6.818 1.301 9.42 3.902 5.205 5.196 5.205 13.641 0 18.843-19.887 19.887-52.248 19.887-72.135 0v0zM679.531 375.010c0 36.201-26.167 66.383-60.577 72.681v222.922c0 28.915-14.389 55.729-38.488 71.717-22.635 15.014-50.728 18.421-76.135 9.469l-83.66 28.402c-64.285 21.82-131.954 24.058-195.694 6.474-83.438-23.024-131.269-71.703-138.656-140.899-6.53-8.621-11.729-18.298-15.248-28.741l-6.49-19.211c-3.49-10.314 0.351-21.147 9.558-26.96 9.2-5.817 20.635-4.646 28.459 2.927 2.666 2.587 5.595 4.766 8.669 6.586v-132.683c-34.413-6.296-60.577-36.479-60.577-72.681 0-37.64 28.306-68.782 64.741-73.313 9.147-50.529 33.199-97.133 69.968-134.44 48.013-48.693 111.824-75.508 179.705-75.508h0.030c67.791 0 131.531 26.407 179.469 74.344 37.446 37.446 61.747 84.528 70.595 135.662 36.242 4.715 64.326 35.763 64.326 73.253v0zM565.738 720.117c16.884-11.196 26.563-29.244 26.563-49.505v-174.386c-41.355 6.433-73.118 42.286-73.118 85.417l-1.098 146.519c16.268 4.284 33.239 1.52 47.654-8.044v0zM93.737 600.836l2.587 7.663c6.785 20.081 21.853 36.379 41.333 44.727 19.488 8.345 41.674 7.993 60.894-0.952 40.35-18.796 89.129-8.635 118.631 24.701l3.293 3.735c4.882 5.514 4.37 13.94-1.144 18.81-5.517 4.871-13.934 4.359-18.813-1.147l-3.301-3.735c-21.73-24.571-57.68-32.059-87.414-18.209-26.067 12.141-56.193 12.616-82.633 1.294-2.41-1.032-4.743-2.179-7.053-3.383 15.492 41.292 52.978 70.368 111.962 86.644 58.567 16.16 120.821 14.078 180.037-6.018l79.323-26.929 1.041-68.846c-35.321-48.027-86.837-80.534-145.538-91.71-60.114-11.451-121.427 0.658-172.675 34.103-25.034 16.332-56.599 15.633-80.527-0.74v0zM77.349 375.010c0 21.431 14.339 39.561 33.924 45.329v-72.229c0-6.24 0.217-12.444 0.658-18.61-19.917 5.555-34.582 23.846-34.582 45.512v0zM525.765 184.936c-42.903-42.902-99.949-66.538-160.629-66.538h-0.026c-60.682 0-117.771 24.002-160.729 67.571-42.855 43.481-66.454 101.064-66.454 162.143v238.547c7.547-0.572 15.028-3.012 21.772-7.409 57.045-37.217 125.308-50.701 192.221-37.965 54.323 10.347 103.111 37.087 140.615 76.525v-36.159c0-57.854 43.669-105.667 99.771-112.287v-123.771c0-60.693-23.629-117.744-66.538-160.658v0zM618.442 329.546c0.326 5.319 0.512 10.664 0.512 16.049v74.743c19.585-5.768 33.924-23.898 33.924-45.329 0-21.607-14.59-39.868-34.436-45.464v0zM460.639 214.362h-188.43c-8.589 0-15.615 7.028-15.615 15.615v0c0 8.589 7.028 15.615 15.615 15.615h188.43c8.589 0 15.615-7.028 15.615-15.615v0c0-8.589-7.028-15.615-15.615-15.615zM986.226 131.484c-31.214 34.566-32.533 122.639-28.841 213.775 13.6 12.769 22.115 30.89 22.115 50.971 0 17.632-6.572 33.751-17.374 46.075 4.537 92.946 6.945 155.108-22.538 212.506-20.113 39.162-52.663 71.889-96.736 97.256-51.37 29.573-109.959 44.082-169.455 41.957-33.794-1.204-66.052-11.848-93.719-30.235 8.946-3.998 16.862-9.781 23.443-16.87 21.561 12.403 45.886 19.567 71.218 20.469 54.503 1.943 108.179-11.339 155.214-38.421 39.551-22.765 68.598-51.819 86.325-86.333 23.603-45.935 24.302-95.914 20.433-181.778-4.287 1.783-8.784 3.14-13.444 4.051v13.551c0 7.361-5.97 13.321-13.322 13.321-7.361 0-13.331-5.962-13.331-13.321v-30.266c-125.398-1.34-211.438 39.479-261.858 74.304-0.307-10.311-0.912-20.619-1.742-30.924 12.567-7.966 26.748-15.993 42.619-23.631 65.773-31.655 140.062-47.269 220.979-46.409v-52.811c0-116.638-94.897-211.536-211.538-211.536-39.040 0-75.628 10.647-107.042 29.174-4.492-7.799-10.471-14.775-17.459-20.57 14.412-8.877 29.821-16.288 46.042-21.963-23.542-10.132-59.952-22.199-103.011-24.599-7.075-11.173-17.243-20.491-28.971-26.806 4.707-0.228 9.358-0.353 13.927-0.353 31.901 0 60.218 5.125 82.456 11.136 38.641 10.451 65.889 25.116 75.182 30.522 12.656-2.082 25.636-3.189 38.877-3.189 13.232 0 26.204 1.107 38.861 3.189 9.297-5.416 36.544-20.071 75.178-30.522 29.663-8.019 57.161-11.15 82.031-11.15 41.441 0 75.601 8.701 100.307 18.041 4.115 1.553 7.198 5.049 8.239 9.327 1.030 4.28-0.117 8.801-3.067 12.071zM922.87 368.72v68.709c17.379-5.638 29.977-21.966 29.977-41.202 0-19.379-12.793-35.834-30.392-41.341 0.266 4.58 0.415 9.191 0.415 13.833zM806.549 128.692c-17.083 4.564-31.826 10.085-43.464 15.114 80.185 28.036 140.956 97.802 156.116 183.152 3.749 0.512 7.401 1.319 10.939 2.408-3.024-92.011 1.097-159.434 24.87-199.996-47.066-14.216-96.916-14.459-148.462-0.674zM730.509 224.762h-95.21c-8.589 0-15.615 7.028-15.615 15.615v0c0 8.589 7.028 15.615 15.615 15.615h95.21c8.589 0 15.615-7.028 15.615-15.615v0c0-8.589-7.028-15.615-15.615-15.615zM843.952 389.369c5.205 5.205 5.205 13.641 0 18.843-18.933 18.933-49.74 18.933-68.667 0-5.205-5.205-5.205-13.641 0-18.843s13.641-5.205 18.843 0c8.538 8.541 22.44 8.541 30.979 0 2.601-2.601 6.008-3.902 9.417-3.902 3.416 0 6.822 1.301 9.425 3.902v0z" />
<glyph unicode="&#xe90a;" glyph-name="drip" horiz-adv-x="1000" d="M275.887 687.378l-197.655-344.702c-41.533-72.877-44.744-165.542 0-243.572 67.261-117.302 216.877-157.868 334.179-90.605s157.868 216.877 90.607 334.179l-197.655 344.702c-6.527 11.388-22.953 11.388-29.479 0v0z" />
<glyph unicode="&#xe90b;" glyph-name="drip_2" horiz-adv-x="1000" d="M339.887 687.378l-197.655-344.702c-41.533-72.877-44.744-165.542 0-243.572 67.261-117.302 216.877-157.868 334.179-90.605s157.868 216.877 90.607 334.179l-197.655 344.702c-6.527 11.388-22.953 11.388-29.479 0v0z" />
<glyph unicode="&#xe90c;" glyph-name="close" d="M937.997 788.226l-340.226-340.226 340.226-340.226-85.772-85.772-340.226 340.226-340.226-340.226-85.772 85.772 340.226 340.226-340.226 340.226 85.772 85.772 340.226-340.226 340.226 340.226z" />
<glyph unicode="&#xe90d;" glyph-name="chevron_down" horiz-adv-x="1007" d="M502.315 303.001l375.728 375.728c16.007 15.884 41.828 15.884 57.837 0 15.792-15.886 15.792-41.543 0-57.429l-397.571-397.571c-5.531-9.284-14.635-16.152-25.469-18.757-14.879-3.578-30.508 1.484-40.461 13.107l-403.221 403.221c-13.839 16.159-12.908 40.248 2.136 55.292s39.133 15.974 55.292 2.136l375.728-375.728z" />
<glyph unicode="&#xe90e;" glyph-name="chevron_up" horiz-adv-x="1007" d="M504.685 592.999l-375.728-375.728c-16.007-15.884-41.828-15.884-57.837 0-15.792 15.886-15.792 41.543 0 57.429l397.571 397.571c5.531 9.284 14.635 16.152 25.469 18.757 14.879 3.578 30.508-1.484 40.461-13.107l403.221-403.221c13.839-16.159 12.908-40.248-2.136-55.292s-39.133-15.974-55.292-2.136l-375.728 375.728z" />
<glyph unicode="&#xe90f;" glyph-name="search" d="M926.133 94.133l-193.333 193.333c48.8 61.867 77.867 140 77.867 224.533 0 200-162.667 362.667-362.667 362.667s-362.667-162.667-362.667-362.667c0-200 162.667-362.667 362.667-362.667 84.533 0 162.667 29.067 224.267 77.867l193.333-193.333c8.267-8.267 19.2-12.533 30.133-12.533s21.867 4.267 30.133 12.533c17.067 16.533 17.067 43.733 0.267 60.267zM170.667 512c0 152.8 124.533 277.333 277.333 277.333s277.333-124.533 277.333-277.333c0-75.733-30.4-144.267-79.733-194.4-0.533-0.533-1.067-1.067-1.6-1.6s-1.067-1.067-1.6-1.6c-50.133-49.333-118.667-79.733-194.4-79.733-152.8 0-277.333 124.533-277.333 277.333z" />
<glyph unicode="&#xe910;" glyph-name="arrow_left" horiz-adv-x="1028" d="M277.161 458.088c0.894 0.894 2.294 0.597 3.367 1.161 0.924 2.115 2.234 4.141 3.992 5.9l414.005 414.869c6.734 6.734 16.834 7.538 22.585 1.788 1.639-1.639 2.592-3.664 3.188-5.81l4.022 4.022c6.734 6.734 16.834 7.538 22.585 1.788 5.75-5.78 4.946-15.911-1.758-22.644l-410.667-411.501 410.518-410.547c6.823-6.793 7.628-17.042 1.818-22.852-5.84-5.81-16.060-5.006-22.882 1.788l-3.725 3.755c-0.625-2.055-1.639-3.963-3.188-5.543-5.84-5.81-16.060-5.006-22.882 1.788l-419.188 419.188c-6.793 6.823-7.598 17.042-1.788 22.852z" />
<glyph unicode="&#xe911;" glyph-name="delete" horiz-adv-x="1020" d="M232.661 124.443c0-52 40.445-92.445 92.445-92.445h369.78c52 0 92.445 40.445 92.445 92.445v554.669h-554.669v-554.669zM833.553 817.78h-161.779l-46.223 46.223h-231.112l-46.223-46.223h-161.779v-92.445h647.114v92.445z" />
<glyph unicode="&#xe912;" glyph-name="error_triangle" horiz-adv-x="1013" d="M936.376 115.196l-381.337 721.075c-13.866 13.866-27.734 27.734-48.534 27.734s-41.6-13.866-48.534-27.734l-388.271-721.075c-6.934-13.866-6.934-34.667 0-55.468 13.866-20.8 27.734-27.734 48.534-27.734h769.609c20.8 0 34.667 6.934 48.534 27.734 13.866 13.866 13.866 34.667 0 55.468v0zM506.505 142.929c-27.734 0-55.468 27.734-55.468 55.468s27.734 55.468 55.468 55.468c27.734 0 55.468-27.734 55.468-55.468s-27.734-55.468-55.468-55.468v0zM561.972 364.8c0-34.667-27.734-55.468-55.468-55.468-34.667 0-55.468 20.8-55.468 55.468v221.869c0 27.734 27.734 55.468 55.468 55.468s55.468-27.734 55.468-55.468v-221.869z" />
<glyph unicode="&#xe913;" glyph-name="arrow_right" horiz-adv-x="1028" d="M750.838 437.911c-0.894-0.894-2.294-0.597-3.367-1.161-0.924-2.115-2.234-4.141-3.992-5.9l-414.005-414.869c-6.734-6.734-16.834-7.538-22.585-1.788-1.639 1.639-2.592 3.664-3.188 5.81l-4.022-4.022c-6.734-6.734-16.834-7.538-22.585-1.788-5.75 5.78-4.946 15.911 1.758 22.644l410.667 411.501-410.518 410.547c-6.823 6.793-7.628 17.042-1.818 22.852 5.84 5.81 16.060 5.006 22.882-1.788l3.725-3.755c0.625 2.055 1.639 3.963 3.188 5.543 5.84 5.81 16.060 5.006 22.882-1.788l419.188-419.188c6.793-6.823 7.598-17.042 1.788-22.852z" />
<glyph unicode="&#xe914;" glyph-name="eye_interfinvisibility" horiz-adv-x="1032" d="M697.369 385.672c25.694 37.791 39.299 79.351 39.299 124.694 0 12.844-1.512 26.45-3.78 41.566l-138.303-247.134c43.076 16.624 77.086 43.832 102.784 80.867v0zM717.773 726.508c0 0.756 0.756 2.268 0.756 4.536 0 5.292-2.268 9.82-7.552 13.6-0.756 0.756-4.536 2.268-9.82 6.048-5.292 3.024-10.576 6.048-15.868 9.064s-10.576 6.048-16.624 9.064c-6.048 3.024-11.332 6.048-15.112 7.552-4.536 2.268-7.552 3.024-9.064 3.024-6.048 0-10.576-2.268-13.6-7.552l-26.45-47.612c-30.232 5.292-59.702 8.308-88.427 8.308-88.427 0-170.040-22.671-244.11-67.261-74.818-44.588-136.791-105.801-187.423-182.887-6.804-9.82-9.82-21.16-9.82-34.011s3.024-24.182 9.82-34.011c28.72-45.344 63.482-85.403 102.784-120.919s83.135-63.482 129.986-85.403c-14.356-24.938-21.915-39.299-21.915-43.076 0-6.048 2.268-10.576 7.552-13.6 40.055-22.671 61.97-34.767 65.75-34.767 6.048 0 10.576 2.268 13.6 7.552l24.182 43.832c34.767 61.97 86.915 154.926 155.682 279.627 69.527 123.938 121.675 216.902 155.682 278.871v0zM348.214 263.234c-85.403 38.543-155.682 99.76-210.098 184.399 49.879 77.842 112.605 135.279 187.423 173.819-19.648-34.011-30.232-71.038-30.232-111.093 0-34.767 8.308-68.771 24.182-99.76 15.868-31.743 38.543-57.434 67.261-78.595l-38.543-68.771zM532.612 619.949c-4.536-4.536-9.82-6.804-16.624-6.804-27.964 0-52.147-9.82-72.55-30.232-20.404-19.648-30.232-43.832-30.232-72.55 0-6.804-2.268-12.088-6.804-16.624s-9.82-6.804-16.624-6.804c-6.804 0-12.088 2.268-16.624 6.804s-6.804 9.82-6.804 16.624c0 40.81 14.356 76.33 43.832 105.801s64.238 43.832 105.801 43.832c6.804 0 12.088-2.268 16.624-6.804s6.804-9.82 6.804-16.624c0-6.048-2.268-12.088-6.804-16.624v0zM947.515 481.649c-18.892 30.988-42.32 61.214-71.038 90.692s-58.946 54.415-89.936 75.574l-30.988-55.171c55.171-37.791 101.272-86.159 139.059-145.105-40.055-61.97-89.18-111.849-148.129-151.152s-123.938-61.214-193.472-67.261l-36.279-64.994c72.55 0 142.081 15.868 206.318 46.856 64.994 30.988 121.675 74.818 170.795 131.498 22.671 26.45 40.81 50.635 53.659 71.038 6.804 11.332 9.82 22.671 9.82 34.011s-3.024 22.671-9.82 34.011v0z" />
<glyph unicode="&#xe915;" glyph-name="logout" horiz-adv-x="1025" d="M809.383 486.992h-453.473c-21.532 0-39.15-17.615-39.15-39.15s17.615-39.15 39.15-39.15h453.473l-50.568-50.568c-15.332-15.332-15.332-40.127 0-55.461s40.127-15.332 55.461 0l117.446 117.446c0.977 0.977 1.63 1.63 2.61 2.61 0.326 0.326 0.326 0.653 0.653 0.653 0.326 0.977 0.977 1.63 1.63 2.61 0 0.326 0.326 0.326 0.326 0.653 0.653 0.977 0.977 1.63 1.63 2.61 0 0.326 0.326 0.326 0.326 0.653 0.326 0.977 0.977 1.958 1.307 2.937 0 0 0 0.326 0 0.326 0.326 0.977 0.977 2.284 1.307 3.261 0 0 0 0.326 0 0.326 0.326 0.977 0.653 2.284 0.977 3.261 0 0.326 0 0.653 0 0.977 0.326 0.977 0.326 1.958 0.326 2.937 0.326 1.307 0.326 2.61 0.326 3.914s0 2.61-0.326 3.914c0 0.977-0.326 1.958-0.326 2.937 0 0.326 0 0.653 0 0.977-0.326 0.977-0.653 2.284-0.977 3.261 0 0 0 0.326 0 0.326-0.326 0.977-0.653 2.284-1.307 3.261 0 0 0 0.326 0 0.326-0.326 0.977-0.977 1.958-1.307 2.937 0 0.326-0.326 0.326-0.326 0.653-0.326 0.977-0.977 1.63-1.63 2.61 0 0.326-0.326 0.326-0.326 0.653-0.653 0.653-0.977 1.63-1.63 2.284-0.326 0.326-0.326 0.653-0.653 0.653-0.977 0.977-1.63 1.958-2.61 2.937l-117.446 117.446c-7.504 7.504-17.615 11.418-27.732 11.418s-19.899-3.914-27.732-11.418c-15.332-15.332-15.332-40.127 0-55.461l50.568-50.568zM402.236 127.474c107.007 0 206.184 53.177 265.885 141.915 12.071 17.945 7.177 42.411-10.764 54.482s-42.411 7.177-54.482-10.764c-45.022-67.206-120.057-107.333-200.637-107.333-133.432 0-242.071 108.639-242.071 242.071s108.639 242.071 242.071 242.071c80.582 0 155.617-39.803 200.637-106.68 12.071-17.945 36.538-22.512 54.482-10.441s22.512 36.538 10.441 54.482c-59.702 88.411-158.879 141.263-265.56 141.263-176.496 0-320.368-143.546-320.368-320.368 0-177.148 143.546-320.694 320.368-320.694v0z" />
<glyph unicode="&#xe916;" glyph-name="fb" d="M512 896c-247.488 0-448-200.512-448-448s200.512-448 448-448c247.488 0 448 200.512 448 448s-200.512 448-448 448v0zM682.722 667.99h-61.873c-48.123 0-58.435-22.915-58.435-57.289v-74.475h115.724v-116.869h-115.724v-300.195h-120.308v300.195h-100.829v116.869h100.829v85.934c0 99.683 60.726 154.68 150.098 154.68h90.517v-108.849z" />
<glyph unicode="&#xe917;" glyph-name="ok" d="M512 524.768c42.394 0 76.768 34.374 76.768 77.913 0 42.394-34.374 76.768-76.768 76.768-43.54 0-77.913-34.374-76.768-77.913 0-43.54 34.374-76.768 76.768-76.768v0zM512 896c-247.488 0-448-200.512-448-448s200.512-448 448-448c247.488 0 448 200.512 448 448s-200.512 448-448 448v0zM513.145 759.652c87.079 0 156.972-72.184 156.972-159.263 0-85.934-72.184-155.827-159.263-155.827-85.934 0-156.972 72.184-156.972 158.118 1.145 87.079 72.184 156.972 159.263 156.972v0zM689.597 382.691c-19.479-19.479-42.394-34.374-68.747-44.685-24.061-9.166-51.56-13.75-77.913-17.186 3.437-4.584 5.729-6.875 8.020-9.166 35.519-35.519 72.184-72.184 107.704-107.704 12.604-12.604 14.895-27.499 8.020-42.394-6.875-16.040-24.061-26.354-40.103-25.207-10.311 1.145-18.333 5.729-25.207 12.604-27.499 27.499-54.998 53.851-81.35 81.35-8.020 8.020-11.459 6.875-18.333 0-27.499-27.499-54.998-56.144-82.495-83.643-12.604-12.604-27.499-14.895-42.394-8.020-14.895 8.020-25.207 22.915-24.061 38.956 0 10.311 5.729 18.333 12.604 26.354 35.519 35.519 71.039 71.039 106.558 106.558 2.291 2.291 4.584 4.584 8.020 8.020-48.123 4.584-91.663 17.186-129.473 45.831-4.584 3.437-9.166 6.875-13.75 11.459-16.040 16.040-18.333 33.228-4.584 52.705 11.459 16.040 29.79 20.624 49.269 11.459 3.437-2.291 6.875-3.437 10.311-6.875 69.893-48.123 164.993-49.269 234.886-2.291 6.875 5.729 14.895 9.166 22.915 11.459 17.186 4.584 32.081-2.291 41.249-16.040 11.459-14.895 11.459-30.935-1.145-43.54v0z" />
<glyph unicode="&#xe918;" glyph-name="upload" horiz-adv-x="1043" d="M960.174 407.355c-27.607 34.511-63.654 57.518-106.6 67.486 13.803 20.708 20.708 43.713 20.708 69.022 0 35.277-12.272 65.187-37.578 90.495s-55.217 37.578-90.495 37.578c-31.444 0-59.051-9.971-82.826-30.676-19.938 48.315-51.381 86.66-94.328 115.802-43.713 28.377-91.261 42.946-142.644 42.946-71.322 0-131.14-25.308-180.989-75.156s-75.156-110.433-75.156-180.989c0-4.603 0-11.502 0.764-21.473-39.112-18.406-70.555-46.013-94.328-82.826-23.009-36.812-35.277-76.69-35.277-119.637 0-61.352 22.239-114.268 65.955-157.981s96.629-65.955 157.981-65.955h543.733c52.917 0 98.165 18.406 135.741 55.984s55.984 82.826 55.984 135.741c0.764 45.248-13.038 85.127-40.645 119.637v0zM677.188 421.159c-3.067-3.067-6.902-4.603-11.502-4.603h-111.968v-176.387c0-4.603-1.534-8.435-4.603-11.502s-6.902-4.603-11.502-4.603h-95.864c-4.603 0-8.435 1.534-11.502 4.603s-4.603 6.902-4.603 11.502v175.619h-111.201c-4.603 0-8.435 1.534-11.502 4.603s-4.603 6.902-4.603 11.502c0 3.833 1.534 7.67 5.368 12.272l175.619 175.619c3.067 3.067 6.902 4.603 11.502 4.603s8.435-1.534 11.502-4.603l175.619-175.619c3.067-3.067 4.603-6.902 4.603-11.502-0.764-4.603-2.301-8.435-5.368-11.502v0z" />
<glyph unicode="&#xe919;" glyph-name="vk" d="M512 896c-247.488 0-448-200.512-448-448s200.512-448 448-448c247.488 0 448 200.512 448 448s-200.512 448-448 448v0zM738.864 399.877c20.624-20.624 43.54-40.103 61.873-61.873 8.020-10.311 16.040-20.624 21.77-32.081 8.020-16.040 1.145-34.374-13.75-35.519h-91.663c-24.061-2.291-42.394 8.020-58.435 24.061-12.604 12.604-24.061 26.354-36.665 40.103-4.584 5.729-10.311 10.311-16.040 14.895-12.604 8.020-22.915 5.729-30.935-6.875-6.875-13.75-9.166-27.499-9.166-42.394-1.145-21.77-8.020-27.499-29.79-28.645-46.977-2.291-90.517 4.584-131.764 28.645-35.519 20.624-64.164 49.269-88.225 82.495-46.977 64.164-83.643 135.203-116.869 207.387-6.875 16.040-2.291 25.207 16.040 25.207 29.79 1.145 59.58 0 89.37 0 12.604 0 20.624-6.875 25.207-18.333 16.040-40.103 35.519-77.913 60.726-113.433 6.875-9.166 13.75-18.333 22.915-25.207 10.311-6.875 18.333-4.584 24.061 6.875 3.437 8.020 4.584 16.040 5.729 24.061 2.291 27.499 2.291 54.998-1.145 82.495-2.291 17.186-12.604 28.645-29.79 32.081-9.166 1.145-8.020 4.584-3.437 10.311 6.875 9.166 14.895 13.75 28.645 13.75h104.265c16.040-3.437 19.479-10.311 21.77-27.499v-115.724c0-6.875 3.437-25.207 14.895-29.79 9.166-3.437 14.895 4.584 20.624 10.311 25.207 26.354 42.394 57.289 58.435 89.37 6.875 13.75 12.604 28.645 19.479 43.54 4.584 11.459 11.459 16.040 22.915 16.040h99.683c3.437 0 5.729 0 9.166 0 17.186-3.437 21.77-10.311 16.040-26.354-8.020-26.354-24.061-46.977-40.103-68.747-17.186-22.915-34.374-45.831-50.414-68.747-14.895-21.77-13.75-32.081 4.584-50.414v0z" />
<glyph unicode="&#xe91a;" glyph-name="arrow_l" horiz-adv-x="1043" d="M948.064 486.362h-752.321l179.581 179.581c15.691 15.691 15.691 41.261 0 56.953s-41.261 15.691-56.953 0l-248.159-248.45c-15.691-15.691-15.691-41.261 0-56.953l248.159-248.159c7.845-7.845 18.306-11.913 28.476-11.913s20.631 4.068 28.476 11.913c15.691 15.691 15.691 41.261 0 56.953l-179.581 179.581h752.321c22.084 0 40.389 18.016 40.389 40.389-0.291 22.084-18.306 40.098-40.389 40.098v0z" />
<glyph unicode="&#xe91b;" glyph-name="account" d="M512 800.001c-193.6 0-352.001-158.4-352.001-352.001s158.4-352.001 352.001-352.001c193.6 0 352.001 158.4 352.001 352.001s-158.4 352.001-352.001 352.001v0zM512 694.4c61.6 0 105.6-44 105.6-105.6s-44-105.6-105.6-105.6c-61.6 0-105.6 44-105.6 105.6s44 105.6 105.6 105.6v0zM512 192.8c-88 0-167.2 44-211.2 114.4 0 70.4 140.8 110 211.2 110s211.2-39.6 211.2-110c-44-66-123.2-114.4-211.2-114.4v0z" />
<glyph unicode="&#xe91c;" glyph-name="login" horiz-adv-x="1025" d="M523.914 358.435c-15.332-15.332-15.332-40.127 0-55.459 7.504-7.504 17.615-11.418 27.732-11.418s19.899 3.914 27.732 11.418l117.444 117.444c0.977 0.977 1.63 1.958 2.609 2.937 0.326 0.326 0.326 0.653 0.653 0.653 0.653 0.653 1.307 1.63 1.63 2.284 0 0.326 0.326 0.326 0.326 0.653 0.653 0.977 0.977 1.63 1.63 2.609 0 0.326 0.326 0.326 0.326 0.653 0.653 0.977 0.977 1.958 1.307 2.937 0 0 0 0.326 0 0.326 0.326 0.977 0.977 2.284 1.307 3.261 0 0 0 0.326 0 0.326 0.326 0.977 0.653 2.284 0.977 3.261 0 0.326 0 0.653 0 0.977 0 0.977 0.326 1.958 0.326 2.937 0 1.307 0.326 2.609 0.326 3.914s0 2.609-0.326 3.914c0 0.977-0.326 1.958-0.326 2.937 0 0.326 0 0.653 0 0.977-0.326 0.977-0.653 2.284-0.977 3.261 0 0 0 0.326 0 0.326-0.326 0.977-0.653 2.284-1.307 3.261 0 0 0 0.326 0 0.326-0.326 0.977-0.977 1.958-1.307 2.937 0 0.326-0.326 0.326-0.326 0.653-0.326 0.977-0.977 1.63-1.63 2.609 0 0.326-0.326 0.326-0.326 0.653-0.653 0.653-0.977 1.63-1.63 2.284-0.326 0.326-0.326 0.653-0.653 0.653-0.977 0.977-1.63 1.958-2.609 2.937l-117.444 117.444c-15.332 15.332-40.127 15.332-55.459 0s-15.332-40.127 0-55.459l50.568-50.568h-453.469c-21.531 0-39.15-17.615-39.15-39.15s17.615-39.15 39.15-39.15h453.469l-50.568-50.568zM622.766 768.514c-107.005 0-206.182-53.175-265.883-141.913-12.071-17.945-7.177-42.411 10.764-54.482s42.411-7.177 54.482 10.764c45.021 67.206 120.055 107.333 200.635 107.333 133.43 0 242.067-108.637 242.067-242.067s-108.637-242.067-242.067-242.067c-80.581 0-155.614 39.802-200.635 106.68-12.071 17.945-36.537 22.512-54.482 10.441s-22.512-36.537-10.441-54.482c59.702-88.411 158.878-141.26 265.556-141.26 176.494 0 320.365 143.544 320.365 320.365 0 177.146-143.544 320.69-320.365 320.69v0z" />
<glyph unicode="&#xe91d;" glyph-name="arrow_r" horiz-adv-x="1043" d="M94.936 409.638h752.321l-179.581-179.581c-15.691-15.691-15.691-41.261 0-56.953s41.261-15.691 56.953 0l248.159 248.45c15.691 15.691 15.691 41.261 0 56.953l-248.159 248.159c-7.845 7.845-18.306 11.913-28.476 11.913s-20.631-4.068-28.476-11.913c-15.691-15.691-15.691-41.261 0-56.953l179.581-179.581h-752.321c-22.084 0-40.389-18.016-40.389-40.389 0.291-22.084 18.306-40.098 40.389-40.098v0z" />
</font>
</defs>
</svg>
